<?xml version="1.0" encoding="utf-8"?>
<!-- Generator: Adobe Illustrator 19.0.1, SVG Export Plug-In . SVG Version: 6.00 Build 0)  -->
<svg version="1.1" id="Layer_1" xmlns="http://www.w3.org/2000/svg" xmlns:xlink="http://www.w3.org/1999/xlink" x="0px" y="0px"
	 viewBox="0 0 75 75" style="enable-background:new 0 0 75 75;" xml:space="preserve">
<style type="text/css">
	.st0{fill:url(#SVGID_1_);}
	.st1{fill:#FFFFFF;}
</style>
<linearGradient id="SVGID_1_" gradientUnits="userSpaceOnUse" x1="0" y1="37.5" x2="75" y2="37.5">
	<stop  offset="0.6305" style="stop-color:#B31D22"/>
	<stop  offset="1" style="stop-color:#B81F24"/>
</linearGradient>
<rect class="st0" width="75" height="75"/>
<g>
	<path class="st1" d="M62.5,20c-0.7-2.3-1.8-4.3-3.3-5.8c-1.5-1.5-3.2-2.7-5.2-3.5c-2-0.8-4-1.2-6-1.2c-2,0-3.6,0.1-4.8,0.4
		c-1.2,0.3-2.2,0.7-3,1.2c-0.8,0.5-1.5,1-2,1.6c-0.5,0.6-1,1.1-1.5,1.6l0.4-1.8c0.1-0.6,0-1.1-0.4-1.5c-0.3-0.4-0.8-0.6-1.4-0.6
		h-9.7c-0.6,0-1.1,0.2-1.6,0.6c-0.5,0.4-0.8,0.9-0.9,1.5l-8.5,39.8H29l0.9-4.4c0.2,0.5,0.6,1,1.2,1.6s1.3,1.1,2.1,1.6
		c0.9,0.5,1.9,0.9,3.1,1.2c1.2,0.3,2.6,0.5,4.1,0.5c5.7,0,10.2-1.4,13.5-4.3c3.4-2.9,5.8-7.4,7.4-13.7c0.1-0.4,0.2-0.9,0.4-1.4
		c0.1-0.6,0.3-1.2,0.4-1.8c0.1-0.6,0.3-1.2,0.4-1.8c0.1-0.6,0.2-1.1,0.2-1.5C63.3,25.1,63.2,22.4,62.5,20z M48.3,28.9
		c-0.1,0.8-0.2,1.5-0.4,2.2c-0.1,0.7-0.3,1.4-0.6,2.2c-0.6,1.9-1.5,3.5-2.9,4.9c-1.3,1.4-3.3,2.1-5.8,2.1c-1.2,0-2.1-0.2-2.9-0.6
		c-0.8-0.4-1.4-0.9-1.8-1.5c-0.5-0.6-0.7-1.3-0.9-2c-0.1-0.7-0.2-1.5-0.1-2.3c0.1-0.8,0.2-1.7,0.4-2.8c0.2-1.1,0.5-2,0.8-2.8
		c0.3-0.8,0.6-1.6,1.1-2.3c0.5-0.7,1.1-1.4,1.8-2c0.7-0.6,1.5-1.1,2.4-1.5c0.9-0.4,2-0.6,3.2-0.6c1.2,0,2.2,0.2,3,0.6
		c0.8,0.4,1.4,0.9,1.8,1.5c0.4,0.6,0.7,1.4,0.8,2.2C48.4,27,48.4,27.9,48.3,28.9z"/>
	<polygon class="st1" points="28.6,54.3 14.2,54.3 13.8,56.3 28.2,56.3 	"/>
	<path class="st1" d="M11.9,65c-0.1,0.6,0,1.1,0.4,1.5c0.3,0.4,0.8,0.6,1.4,0.6h10.1c0.6,0,1.1-0.2,1.6-0.6c0.5-0.4,0.8-0.9,0.9-1.5
		l0.6-2.7H12.5L11.9,65z"/>
	<polygon class="st1" points="27.8,58.3 13.3,58.3 12.9,60.3 27.3,60.3 	"/>
</g>
<g>
</g>
<g>
</g>
<g>
</g>
<g>
</g>
<g>
</g>
<g>
</g>
</svg>
