<?xml version="1.0" encoding="utf-8"?>
<!-- Generator: Adobe Illustrator 19.0.1, SVG Export Plug-In . SVG Version: 6.00 Build 0)  -->
<svg version="1.1" id="Layer_1" xmlns="http://www.w3.org/2000/svg" xmlns:xlink="http://www.w3.org/1999/xlink" x="0px" y="0px"
	 viewBox="0 0 287.3 109.8" style="enable-background:new 0 0 287.3 109.8;" xml:space="preserve">
<style type="text/css">
	.st0{fill:url(#SVGID_1_);}
	.st1{fill:#FFFFFF;}
</style>
<linearGradient id="SVGID_1_" gradientUnits="userSpaceOnUse" x1="0" y1="54.9079" x2="287.3062" y2="54.9079">
	<stop  offset="0.6305" style="stop-color:#B31D22"/>
	<stop  offset="1" style="stop-color:#B81F24"/>
</linearGradient>
<rect class="st0" width="287.3" height="109.8"/>
<g>
	<path class="st1" d="M71.7,41.2c-0.7-2.3-1.8-4.3-3.3-5.8c-1.5-1.5-3.2-2.7-5.2-3.5c-2-0.8-4-1.2-6-1.2c-2,0-3.6,0.1-4.8,0.4
		c-1.2,0.3-2.2,0.7-3,1.2c-0.8,0.5-1.5,1-2,1.6c-0.5,0.6-1,1.1-1.5,1.6l0.4-1.8c0.1-0.6,0-1.1-0.4-1.5c-0.3-0.4-0.8-0.6-1.4-0.6
		h-9.7c-0.6,0-1.1,0.2-1.6,0.6c-0.5,0.4-0.8,0.9-0.9,1.5l-8.5,39.8h14.4l0.9-4.4c0.2,0.5,0.6,1,1.2,1.6s1.3,1.1,2.1,1.6
		c0.9,0.5,1.9,0.9,3.1,1.2c1.2,0.3,2.6,0.5,4.1,0.5c5.7,0,10.2-1.4,13.5-4.3c3.4-2.9,5.8-7.4,7.4-13.7c0.1-0.4,0.2-0.9,0.4-1.4
		c0.1-0.6,0.3-1.2,0.4-1.8c0.1-0.6,0.3-1.2,0.4-1.8c0.1-0.6,0.2-1.1,0.2-1.5C72.5,46.3,72.4,43.5,71.7,41.2z M57.5,50.1
		c-0.1,0.8-0.2,1.5-0.4,2.2c-0.1,0.7-0.3,1.4-0.6,2.2c-0.6,1.9-1.5,3.5-2.9,4.9c-1.3,1.4-3.3,2.1-5.8,2.1c-1.2,0-2.1-0.2-2.9-0.6
		c-0.8-0.4-1.4-0.9-1.8-1.5c-0.5-0.6-0.7-1.3-0.9-2c-0.1-0.7-0.2-1.5-0.1-2.3c0.1-0.8,0.2-1.7,0.4-2.8c0.2-1.1,0.5-2,0.8-2.8
		c0.3-0.8,0.6-1.6,1.1-2.3c0.5-0.7,1.1-1.4,1.8-2c0.7-0.6,1.5-1.1,2.4-1.5c0.9-0.4,2-0.6,3.2-0.6c1.2,0,2.2,0.2,3,0.6
		c0.8,0.4,1.4,0.9,1.8,1.5c0.4,0.6,0.7,1.4,0.8,2.2C57.6,48.2,57.6,49.1,57.5,50.1z"/>
	<polygon class="st1" points="37.8,75.4 23.4,75.4 22.9,77.5 37.4,77.5 	"/>
	<path class="st1" d="M21.1,86.1c-0.1,0.6,0,1.1,0.4,1.5c0.3,0.4,0.8,0.6,1.4,0.6h10.1c0.6,0,1.1-0.2,1.6-0.6
		c0.5-0.4,0.8-0.9,0.9-1.5l0.6-2.7H21.7L21.1,86.1z"/>
	<polygon class="st1" points="36.9,79.4 22.5,79.4 22.1,81.5 36.5,81.5 	"/>
	<path class="st1" d="M99.1,30.7c1.5,0,2.9,0.2,4.1,0.5c1.2,0.3,2.2,0.7,3,1.2c0.9,0.5,1.5,1,2.1,1.6c0.5,0.6,0.9,1.1,1.2,1.6
		l0.4-1.8c0.1-0.6,0.4-1.1,0.9-1.5c0.5-0.4,1.1-0.6,1.6-0.6h10.1c0.6,0,1.1,0.2,1.4,0.6c0.3,0.4,0.5,0.9,0.4,1.5l-7.8,37.3
		c-0.1,0.6-0.4,1.1-0.9,1.5c-0.5,0.4-1.1,0.6-1.6,0.6h-10.2c-0.6,0-1.1-0.2-1.4-0.6c-0.3-0.4-0.5-0.9-0.4-1.5l0.4-1.8
		c-0.4,0.6-0.9,1.3-1.5,1.8c-0.6,0.6-1.3,1.1-2.2,1.6c-0.9,0.5-2,0.8-3.3,1c-1.3,0.2-2.8,0.4-4.6,0.4c-2,0-4-0.4-5.9-1.2
		c-1.9-0.8-3.5-1.9-4.9-3.5c-1.4-1.5-2.4-3.5-3-5.8c-0.6-2.3-0.7-5.1-0.2-8.2c0.1-0.4,0.1-0.9,0.2-1.4c0.1-0.6,0.2-1.2,0.4-1.8
		c0.1-0.6,0.3-1.2,0.4-1.8c0.1-0.6,0.3-1.1,0.4-1.5c0.8-3.1,1.9-5.9,3.3-8.1c1.4-2.3,3-4.1,4.8-5.6c1.8-1.5,3.8-2.5,6-3.2
		C94.4,31.1,96.7,30.7,99.1,30.7z M92.2,50.1c-0.3,0.8-0.5,1.5-0.6,2.2c-0.1,0.7-0.3,1.4-0.4,2.2c-0.1,1-0.1,1.9,0,2.7
		c0.1,0.8,0.4,1.6,0.8,2.2c0.4,0.6,1,1.1,1.8,1.5c0.8,0.4,1.8,0.6,3,0.6c1.2,0,2.2-0.2,3.1-0.6c0.9-0.4,1.7-0.9,2.4-1.5
		c0.7-0.6,1.3-1.3,1.7-2c0.5-0.7,0.8-1.5,1.1-2.3c0.3-0.8,0.6-1.7,0.8-2.8c0.2-1.1,0.3-2,0.4-2.8c0.1-0.8,0-1.6-0.1-2.3
		c-0.1-0.7-0.4-1.4-0.8-2c-0.4-0.6-1-1.1-1.8-1.5c-0.7-0.4-1.7-0.6-2.9-0.6c-2.5,0-4.4,0.7-5.8,2.1C93.7,46.6,92.8,48.2,92.2,50.1z"
		/>
	<path class="st1" d="M142.9,49.5c-0.3,0.8-0.5,1.7-0.7,2.8c-0.2,1.1-0.4,2-0.5,2.8c-0.3,1.9,0.1,3.5,1.2,4.6c1,1.2,2.6,1.8,4.8,1.8
		c1.8,0,3.2-0.3,4.2-0.8c1-0.5,2-1.2,2.8-2.1c0.4-0.4,0.8-0.8,1.2-1.1c0.4-0.3,0.9-0.5,1.5-0.5h10.5c0.6,0,1.1,0.2,1.4,0.6
		c0.4,0.4,0.5,0.9,0.2,1.5c-0.3,0.9-0.8,2.1-1.5,3.8c-0.7,1.7-2,3.3-3.7,4.9c-1.7,1.6-4.1,3-7,4.2c-2.9,1.2-6.7,1.8-11.4,1.8
		c-2.6,0-5.1-0.5-7.5-1.4c-2.5-0.9-4.6-2.2-6.4-3.8c-1.8-1.6-3.1-3.6-4-5.9c-0.9-2.3-1.1-4.9-0.6-7.7c0.2-0.8,0.4-1.9,0.6-3.2
		c0.3-1.3,0.5-2.4,0.7-3.2c1.4-5.7,4.1-10.1,8.3-13.2c4.1-3.2,9.6-4.8,16.4-4.8c3.8,0,7,0.6,9.5,1.8c2.5,1.2,4.4,2.6,5.9,4.2
		c1.4,1.6,2.4,3.3,3,4.9c0.5,1.7,0.7,2.9,0.6,3.8c-0.1,0.6-0.4,1.1-1,1.5c-0.5,0.4-1.1,0.6-1.7,0.6h-10.5c-0.6,0-1-0.2-1.3-0.5
		c-0.3-0.3-0.5-0.7-0.6-1.1c-0.4-0.9-1.1-1.6-1.9-2.1c-0.8-0.5-2.1-0.8-3.9-0.8c-2.1,0-4,0.6-5.5,1.8
		C144.6,46,143.5,47.6,142.9,49.5z"/>
	<path class="st1" d="M181.1,33.7c0.1-0.6,0.4-1.1,1-1.5c0.5-0.4,1.1-0.6,1.7-0.6h10.1c0.6,0,1,0.2,1.4,0.6c0.3,0.4,0.4,0.9,0.3,1.5
		l-4.2,20.2c-0.5,2.3-0.4,4.1,0.3,5.5c0.7,1.4,2.3,2.1,4.6,2.1c2.3,0,4.2-0.7,5.4-2.1c1.3-1.4,2.2-3.2,2.7-5.5l4.2-20.2
		c0.1-0.6,0.4-1.1,1-1.5c0.5-0.4,1.1-0.6,1.7-0.6h10.1c0.6,0,1,0.2,1.4,0.6c0.3,0.4,0.4,0.9,0.3,1.5L215,70.9
		c-0.1,0.6-0.4,1.1-0.9,1.5c-0.5,0.4-1.1,0.6-1.6,0.6h-9.3c-0.6,0-1.1-0.2-1.4-0.6c-0.3-0.4-0.5-0.9-0.4-1.5l0.4-1.8
		c-0.6,0.6-1.2,1.2-1.8,1.7c-0.6,0.6-1.4,1.1-2.3,1.5c-0.9,0.5-1.9,0.8-3.1,1.1c-1.2,0.3-2.6,0.4-4.3,0.4c-2.2,0-4.3-0.4-6.2-1.1
		c-2-0.7-3.6-1.8-5-3.3c-1.4-1.5-2.3-3.4-2.8-5.7c-0.5-2.3-0.5-5,0.2-8.2L181.1,33.7z"/>
	<path class="st1" d="M261.8,31.5c0.6,0,1,0.2,1.4,0.6c0.3,0.4,0.4,0.9,0.3,1.5l-1.7,8.1c-0.1,0.6-0.4,1.1-1,1.5
		c-0.5,0.4-1.1,0.6-1.7,0.6h-7.3c-2.4,0-4.4,0.6-5.9,1.9c-1.5,1.3-2.5,3.1-3,5.5l-4.2,19.7c-0.1,0.6-0.4,1.1-0.9,1.5
		c-0.5,0.4-1.1,0.6-1.6,0.6h-10.1c-0.6,0-1.1-0.2-1.4-0.6c-0.3-0.4-0.5-0.9-0.4-1.5l7.9-37.3c0.1-0.6,0.4-1.1,1-1.5
		c0.5-0.4,1.1-0.6,1.7-0.6h9.3c0.6,0,1,0.2,1.4,0.6c0.3,0.4,0.4,0.9,0.3,1.5l-0.4,1.8c1.2-1.2,2.6-2.2,4.2-2.9
		c1.6-0.7,3.7-1.1,6.5-1.1H261.8z"/>
</g>
<g>
</g>
<g>
</g>
<g>
</g>
<g>
</g>
<g>
</g>
<g>
</g>
</svg>
